<svg viewBox="0 0 300 200" xmlns="http://www.w3.org/2000/svg">
    <rect x="0" y="0" width="300" height="200" fill="#2c3e50" />

    <g id="stars">
        <circle cx="50" cy="30" r="1.5" fill="white" fill-opacity="0.8" />
        <circle cx="80" cy="70" r="1" fill="white" fill-opacity="0.9" />
        <circle cx="120" cy="40" r="1.2" fill="white" fill-opacity="0.7" />
        <circle cx="180" cy="60" r="1.8" fill="white" fill-opacity="1" />
        <circle cx="220" cy="20" r="1" fill="white" fill-opacity="0.8" />
        <circle cx="280" cy="80" r="1.3" fill="white" fill-opacity="0.9" />
        <circle cx="20" cy="90" r="0.8" fill="white" fill-opacity="0.6" />
        <circle cx="150" cy="15" r="1.1" fill="white" fill-opacity="1" />
        <circle cx="160" cy="95" r="0.9" fill="white" fill-opacity="0.7" />
        <circle cx="200" cy="110" r="1" fill="white" fill-opacity="0.8" />
        <circle cx="75" cy="120" r="1.4" fill="white" fill-opacity="0.9" />
    </g>

    <path d="M250,25 A25,25 0 0,1 250,75 A20,25 0 0,0 250,25 Z" fill="#FFFACD" />

    <path d="M 0,200 Q 150,100 300,200 Z" fill="#27ae60" />

    <text x="150" y="20" font-family="Comic Sans MS,Arial" font-style="italic" font-size="5" fill="red" font-weight="100" text-anchor="middle">
        Le sang des étudiants va couleur cette nuit.
    </text>
</svg>


